<svg width="16" height="16" viewBox="0 0 16 16" fill="none" xmlns="http://www.w3.org/2000/svg">
<g id="24 / notifications / question-circle">
<path id="icon" fill-rule="evenodd" clip-rule="evenodd" d="M0.666687 7.99999C0.666687 12.0501 3.94993 15.3333 8.00002 15.3333C12.0501 15.3333 15.3334 12.0501 15.3334 7.99999C15.3334 3.9499 12.0501 0.666656 8.00002 0.666656C3.94993 0.666656 0.666687 3.9499 0.666687 7.99999ZM14 7.99999C14 11.3137 11.3137 14 8.00002 14C4.68631 14 2.00002 11.3137 2.00002 7.99999C2.00002 4.68628 4.68631 1.99999 8.00002 1.99999C11.3137 1.99999 14 4.68628 14 7.99999ZM8.00024 11.3322C8.36855 11.3322 8.66713 11.0337 8.66713 10.6656C8.66713 10.2974 8.36855 9.99889 8.00024 9.99889C7.63193 9.99889 7.33335 10.2974 7.33335 10.6656C7.33335 11.0337 7.63193 11.3322 8.00024 11.3322ZM7.33335 9.33332H8.66669C8.66669 8.80109 8.7503 8.70354 9.29816 8.42961C10.2503 7.95354 10.6667 7.46775 10.6667 6.33332C10.6667 4.88041 9.52292 3.99999 8.00002 3.99999C6.52726 3.99999 5.33335 5.1939 5.33335 6.66666H6.66669C6.66669 5.93028 7.26364 5.33332 8.00002 5.33332C8.85146 5.33332 9.33335 5.70426 9.33335 6.33332C9.33335 6.86556 9.24974 6.96311 8.70188 7.23704C7.74974 7.71311 7.33335 8.19889 7.33335 9.33332Z" fill="#555F61"/>
</g>
</svg>
