<svg width="16" height="16" viewBox="0 0 16 16" fill="none" xmlns="http://www.w3.org/2000/svg">
<g id="24 / various / planet">
<path id="icon" fill-rule="evenodd" clip-rule="evenodd" d="M13.2064 6.83824C13.8398 6.15713 14.1288 5.56722 13.9658 5.21777C13.8028 4.86816 13.1646 4.71037 12.2351 4.75792C12.6986 5.36245 13.0356 6.06908 13.2064 6.83824ZM10.9561 3.56019C10.11 2.99572 9.09344 2.66667 8.00002 2.66667C5.2539 2.66667 2.99253 4.74214 2.69895 7.41004C1.09879 8.78239 0.301712 10.2249 0.824355 11.3457C1.34695 12.4664 2.96407 12.7831 5.04362 12.4396C5.88979 13.0042 6.90647 13.3333 8.00002 13.3333C10.7466 13.3333 13.0083 11.2572 13.3012 8.58859C14.9003 7.21664 15.6967 5.77471 15.1742 4.65427C14.6517 3.53378 13.0351 3.21701 10.9561 3.56019ZM5.36772 11.0119C4.52947 10.2787 4.00002 9.20117 4.00002 8C4.00002 5.79087 5.79088 4.00001 8.00002 4.00001C10.1822 4.00001 11.9562 5.74737 11.9992 7.91923C11.1517 8.57277 10.0749 9.23887 8.84453 9.81262C7.61468 10.3861 6.41281 10.7827 5.36772 11.0119ZM7.16105 11.9119C7.89073 11.6747 8.64635 11.3762 9.40802 11.021C10.1702 10.6656 10.885 10.2783 11.5361 9.87156C10.8646 11.1376 9.533 12 8.00002 12C7.71225 12 7.43158 11.9696 7.16105 11.9119ZM3.76484 11.242C2.83458 11.2898 2.19587 11.132 2.03277 10.7822C1.86971 10.4326 2.15917 9.84214 2.7933 9.16051C2.96408 9.93013 3.30114 10.6372 3.76484 11.242Z" fill="#555F61"/>
</g>
</svg>
