<svg width="16" height="16" viewBox="0 0 16 16" fill="none" xmlns="http://www.w3.org/2000/svg">
<g id="24 / basic / options">
<path id="icon" fill-rule="evenodd" clip-rule="evenodd" d="M8.66665 7.33333C7.42409 7.33333 6.38002 6.48349 6.08399 5.33333H1.33331V4H6.08399C6.38002 2.84985 7.42409 2 8.66665 2C10.1394 2 11.3333 3.19391 11.3333 4.66667C11.3333 6.13943 10.1394 7.33333 8.66665 7.33333ZM12.6666 4H14.6666V5.33333H12.6666V4ZM5.33331 14C4.09075 14 3.04669 13.1502 2.75066 12H1.33331V10.6667H2.75066C3.04669 9.51652 4.09075 8.66667 5.33331 8.66667C6.80607 8.66667 7.99998 9.86057 7.99998 11.3333C7.99998 12.8061 6.80607 14 5.33331 14ZM9.33331 12H14.6666V10.6667H9.33331V12ZM6.66665 11.3333C6.66665 12.0697 6.06969 12.6667 5.33331 12.6667C4.59693 12.6667 3.99998 12.0697 3.99998 11.3333C3.99998 10.597 4.59693 10 5.33331 10C6.06969 10 6.66665 10.597 6.66665 11.3333ZM9.99998 4.66667C9.99998 5.40305 9.40303 6 8.66665 6C7.93027 6 7.33331 5.40305 7.33331 4.66667C7.33331 3.93029 7.93027 3.33333 8.66665 3.33333C9.40303 3.33333 9.99998 3.93029 9.99998 4.66667Z" fill="#555F61"/>
</g>
</svg>
