<svg width="16" height="16" viewBox="0 0 16 16" fill="none" xmlns="http://www.w3.org/2000/svg">
<g id="24 / basic / book">
<path id="icon" fill-rule="evenodd" clip-rule="evenodd" d="M14 14.6667H4C2.89543 14.6667 2 13.7712 2 12.6667V3.33334C2 2.22877 2.89543 1.33334 4 1.33334H14V12C13.6318 12 13.3333 12.2985 13.3333 12.6667C13.3333 13.0349 13.6318 13.3333 14 13.3333V14.6667ZM12 12.6667C12 12.4329 12.0401 12.2085 12.1138 12H4C3.63181 12 3.33333 12.2985 3.33333 12.6667C3.33333 13.0349 3.63181 13.3333 4 13.3333H12.1138C12.0401 13.1248 12 12.9004 12 12.6667ZM4 2.66668H12.6667V10.6667H4C3.76624 10.6667 3.54185 10.7068 3.33333 10.7805V3.33334C3.33333 2.96515 3.63181 2.66668 4 2.66668Z" fill="#555F61"/>
</g>
</svg>
